<?xml version="1.0" encoding="UTF-8"?>
<svg xmlns="http://www.w3.org/2000/svg" xmlns:xlink="http://www.w3.org/1999/xlink" width="50px" height="50px" viewBox="0 0 50 50" version="1.1">
<g id="surface1">
<path style=" stroke:none;fill-rule:nonzero;fill:rgb(0%,0%,0%);fill-opacity:1;" d="M 1.113281 3.246094 L 1.113281 4.335938 L 3.179688 4.335938 C 5.425781 4.359375 6.339844 4.671875 7.160156 5.78125 C 7.40625 6.117188 8.675781 10.632812 10.34375 17.171875 L 13.121094 28.003906 L 12.542969 28.582031 C 10.742188 30.382812 11.03125 33.519531 13.191406 35.230469 L 14.058594 35.921875 L 28.601562 35.988281 L 43.148438 36.03125 L 43.148438 34.03125 L 29.136719 34.03125 C 19.550781 34.03125 14.96875 33.964844 14.613281 33.785156 C 13.480469 33.273438 12.96875 31.339844 13.699219 30.292969 C 14.523438 29.113281 14.191406 29.136719 29.691406 29.136719 C 37.589844 29.136719 44.039062 29.070312 44.039062 29.003906 C 44.039062 28.914062 48.398438 13.257812 48.84375 11.722656 C 48.953125 11.367188 48.6875 11.34375 45.285156 11.34375 L 41.613281 11.34375 L 40.324219 7.382812 C 39.636719 5.226562 39.011719 3.402344 38.988281 3.359375 C 38.921875 3.269531 28.246094 6.628906 28.070312 6.785156 C 28.046875 6.804688 28.3125 7.785156 28.691406 8.941406 C 29.425781 11.277344 29.449219 11.34375 29.160156 11.34375 C 29.046875 11.34375 28.378906 9.609375 27.691406 7.496094 C 26.980469 5.40625 26.335938 3.582031 26.246094 3.492188 C 26.113281 3.335938 15.679688 6.515625 15.371094 6.785156 C 15.347656 6.828125 15.613281 7.808594 15.992188 8.941406 C 16.371094 10.074219 16.679688 11.097656 16.679688 11.1875 C 16.679688 11.277344 15.371094 11.320312 13.746094 11.300781 L 10.832031 11.230469 L 10.097656 8.40625 C 9.1875 4.914062 8.539062 3.847656 6.761719 2.980469 C 5.738281 2.492188 5.136719 2.359375 3.3125 2.269531 L 1.113281 2.15625 Z M 25.84375 8.453125 C 26.3125 9.851562 26.691406 11.078125 26.691406 11.164062 C 26.691406 11.277344 24.910156 11.320312 22.753906 11.300781 L 18.792969 11.230469 L 18.304688 9.898438 C 18.039062 9.164062 17.816406 8.453125 17.816406 8.296875 C 17.792969 8.03125 24.332031 5.78125 24.777344 5.871094 C 24.890625 5.894531 25.378906 7.074219 25.84375 8.453125 Z M 38.546875 8.296875 C 38.988281 9.675781 39.367188 10.921875 39.367188 11.078125 C 39.367188 11.300781 38.433594 11.34375 35.453125 11.300781 L 31.539062 11.230469 L 30.984375 9.675781 C 30.539062 8.453125 30.472656 8.117188 30.714844 8.03125 C 31.738281 7.652344 37.300781 5.828125 37.476562 5.804688 C 37.609375 5.78125 38.078125 6.917969 38.546875 8.296875 Z M 46.261719 13.480469 C 46.261719 13.613281 43.015625 25.332031 42.683594 26.402344 L 42.4375 27.136719 L 28.691406 27.136719 C 15.769531 27.136719 14.925781 27.113281 14.8125 26.734375 C 14.746094 26.535156 13.988281 23.578125 13.121094 20.152344 C 12.234375 16.75 11.476562 13.8125 11.410156 13.65625 C 11.320312 13.390625 14.011719 13.34375 28.78125 13.34375 C 38.390625 13.34375 46.261719 13.410156 46.261719 13.480469 Z M 46.261719 13.480469 "/>
<path style=" stroke:none;fill-rule:nonzero;fill:rgb(0%,0%,0%);fill-opacity:1;" d="M 17.261719 39.457031 C 14.300781 40.546875 13.433594 44.304688 15.679688 46.484375 C 18.304688 49.019531 22.777344 47.128906 22.777344 43.484375 C 22.777344 40.660156 19.839844 38.5 17.261719 39.457031 Z M 19.773438 41.460938 C 20.460938 41.835938 20.90625 42.660156 20.90625 43.617188 C 20.90625 44.640625 19.660156 45.820312 18.59375 45.820312 C 17.460938 45.820312 16.480469 44.882812 16.304688 43.660156 C 16.191406 42.792969 16.257812 42.636719 16.96875 41.925781 C 17.839844 41.058594 18.707031 40.925781 19.773438 41.460938 Z M 19.773438 41.460938 "/>
<path style=" stroke:none;fill-rule:nonzero;fill:rgb(0%,0%,0%);fill-opacity:1;" d="M 33.050781 39.414062 C 31.894531 39.722656 30.558594 41.082031 30.25 42.304688 C 29.382812 45.507812 32.160156 48.332031 35.410156 47.488281 C 36.632812 47.175781 37.722656 46.285156 38.167969 45.21875 C 38.566406 44.304688 38.566406 42.683594 38.167969 41.75 C 37.789062 40.792969 36.476562 39.679688 35.429688 39.390625 C 34.453125 39.101562 34.207031 39.125 33.050781 39.414062 Z M 35.808594 41.75 C 36.742188 42.617188 36.898438 43.683594 36.210938 44.707031 C 34.921875 46.621094 32.027344 45.820312 32.027344 43.550781 C 32.027344 42.460938 32.316406 41.925781 33.097656 41.503906 C 34.050781 40.96875 35.054688 41.058594 35.808594 41.75 Z M 35.808594 41.75 "/>
</g>
</svg>
